<svg width="25" height="24" viewBox="0 0 25 24" fill="none" xmlns="http://www.w3.org/2000/svg">
<g id="24 / Entity / Calendar ">
<path id="Union" fill-rule="evenodd" clip-rule="evenodd" d="M16 4.5V6.5H17.5V4.5H18.5C19.3284 4.5 20 5.17157 20 6V8.01562L5 8.01562V6C5 5.17157 5.67157 4.5 6.5 4.5H7.5V6.5H9V4.5L16 4.5ZM5 9.51562L5 18C5 18.8284 5.67157 19.5 6.5 19.5H18.5C19.3284 19.5 20 18.8284 20 18V9.51562L5 9.51562ZM6.5 3H7.5V1H9V3L16 3V1H17.5V3H18.5C20.1569 3 21.5 4.34315 21.5 6V18C21.5 19.6569 20.1569 21 18.5 21H6.5C4.84315 21 3.5 19.6569 3.5 18V6C3.5 4.34315 4.84315 3 6.5 3Z" fill="#FE6E36"/>
</g>
</svg>
