<svg width="25" height="24" viewBox="0 0 25 24" fill="none" xmlns="http://www.w3.org/2000/svg">
<path fill-rule="evenodd" clip-rule="evenodd" d="M21 12C21 16.6944 17.1944 20.5 12.5 20.5C7.80558 20.5 4 16.6944 4 12C4 7.30558 7.80558 3.5 12.5 3.5C17.1944 3.5 21 7.30558 21 12ZM22.5 12C22.5 17.5228 18.0228 22 12.5 22C6.97715 22 2.5 17.5228 2.5 12C2.5 6.47715 6.97715 2 12.5 2C18.0228 2 22.5 6.47715 22.5 12ZM11.75 7.03058V11.6644C11.75 12.3996 12.0444 13.1042 12.5675 13.6208L14.4729 15.503L15.5271 14.4358L13.6216 12.5537C13.3838 12.3188 13.25 11.9985 13.25 11.6644V7.03058H11.75Z" fill="#5F1224"/>
</svg>
