<svg width="32" height="27" viewBox="0 0 32 27" fill="none" xmlns="http://www.w3.org/2000/svg">
<g id="Group 1">
<path id="Vector" d="M1.64578 26.2476L30.3661 26.2405C30.8726 26.0953 31.379 25.4967 31.5349 24.8946L31.5561 5.33691C31.5561 5.02169 31.5136 3.67227 31.4959 3.59435C31.2409 3.15872 31.0072 2.76204 30.5432 2.64162C30.5255 2.63807 30.1607 2.61682 30.143 2.61328L1.44036 2.63099C1.36598 2.63099 1.2916 2.63807 1.22077 2.65224C0.799294 2.87891 0.278652 3.3606 0.11573 3.79978C0.112188 3.83874 0.101562 5.29795 0.101562 5.34045V24.5723M0.11573 24.5723C0.108646 25.1213 0.785126 25.989 1.45806 26.1803C1.54307 26.2051 1.63161 26.2086 1.70599 26.2193M1.47223 24.7352L1.50057 3.93082L30.1996 3.96624L30.1005 24.7778L1.47223 24.7388V24.7352Z" fill="#2B323A"/>
<path id="Vector_2" d="M0 1.29983V0L21.2188 0.0389596V1.33879L0 1.29983Z" fill="#2B323A"/>
<path id="Vector_3" d="M26.9609 1.33499V0.0351562L28.6858 0.038698L28.6681 1.32436L26.9609 1.33499Z" fill="#2B323A"/>
<path id="Vector_4" d="M23.3672 1.32522V0.0253906L25.2302 0.0395578L25.2514 1.32522H23.3672Z" fill="#2B323A"/>
<path id="Vector_5" d="M30.2812 1.35647V0.0566406H31.9919L31.999 1.34585L30.2812 1.35647Z" fill="#2B323A"/>
<path id="Vector_6" d="M18.0669 9.59766H15.7576C15.276 9.82433 14.7624 10.3343 14.6243 10.8373C14.6243 10.8444 14.6243 10.855 14.6172 10.8621V13.0863H15.9135V10.8939H17.7375V13.0863H19.0338V10.7381C18.8886 10.3202 18.499 9.84558 18.0633 9.59766H18.0669Z" fill="#2B323A"/>
<path id="Vector_7" d="M20.5076 17.479V13.3033C20.2987 12.8641 19.8666 12.4037 19.4203 12.2266H14.2139C13.8101 12.4178 13.3851 12.811 13.1797 13.2289V17.2878C13.3426 17.7163 13.7464 18.198 14.1891 18.4282H19.5549C19.9268 18.2299 20.3093 17.8686 20.5041 17.479H20.5076ZM19.2113 17.1319H14.476V13.5229H19.2113V17.1319Z" fill="#2B323A"/>
</g>
</svg>
