<svg width="29" height="32" viewBox="0 0 29 32" fill="none" xmlns="http://www.w3.org/2000/svg">
<g id="&#208;&#160;&#208;&#142;&#208;&#160;&#194;&#187;&#208;&#160;&#209;&#149;&#208;&#160;&#226;&#132;&#150; 1">
<path id="Vector" d="M27.5026 0.0493827C27.4709 0.0388007 27.2028 0.021164 27.1746 0.0141093L1.22046 0C0.740741 0.179894 0.197531 0.673721 0 1.18166L0.0176366 17.8942C0.0141092 18.2857 0.183422 23.6825 11.866 31.2134C12.3245 31.5556 12.8677 31.7284 13.4145 31.7284C13.9612 31.7284 14.4515 31.5732 14.8995 31.2593L14.9171 31.2487C28.134 24.3704 28.3668 17.4109 28.3704 17.1111L28.4586 1.14638C28.2363 0.666667 27.9965 0.201058 27.5097 0.0493827H27.5026ZM27.0547 17.1005C27.0547 17.1817 26.963 18.776 25.4145 21.1146C23.94 23.3439 20.8078 26.7125 14.2716 30.1058L14.2328 30.127L14.1446 30.1869C13.6861 30.5079 13.0829 30.4938 12.6384 30.1552L12.5961 30.1235C6.75838 26.3633 4.00353 23.2275 2.71958 21.2628C1.34392 19.157 1.32981 17.9189 1.32981 17.9153L1.31217 1.30864L27.1393 1.29453L27.0511 17.1005H27.0547Z" fill="#2B323A"/>
<path id="Vector_2" d="M18.4898 9.30647L9.82812 17.7031L10.7414 18.6453L19.4031 10.2486L18.4898 9.30647Z" fill="#2B323A"/>
<path id="Vector_3" d="M11.496 10.6355L10.5825 9.69727L8.68828 11.5421C8.50838 11.9548 8.44842 12.5438 8.5754 13.0094L10.4837 15.0271L11.4361 14.1276L9.75 12.3428L11.4996 10.6391L11.496 10.6355Z" fill="#2B323A"/>
<path id="Vector_4" d="M20.5545 14.858L18.8331 12.918L17.8525 13.7892L19.4822 15.627L17.6797 17.2742L18.565 18.2407L20.5157 16.4559C20.7061 16.015 20.7379 15.3448 20.5545 14.8545V14.858Z" fill="#2B323A"/>
</g>
</svg>
