<svg width="33" height="32" viewBox="0 0 33 32" fill="none" xmlns="http://www.w3.org/2000/svg">
<g id="Group">
<path id="Vector" d="M23.7988 10.158C23.5995 9.93768 23.1082 9.31153 22.8465 8.26579L22.8355 8.21163C22.8272 8.15837 22.784 7.8756 22.7895 7.58455C22.8088 6.56085 23.5471 5.76944 24.2616 5.00465C24.7887 4.44001 25.3342 3.85517 25.5931 3.19321C25.8429 2.5542 25.8365 1.77747 25.5748 0.8869L25.314 0L26.2378 0.0403971C29.3581 0.176278 31.9496 2.01802 32.4005 4.41981C32.6466 5.72904 32.2012 6.89597 31.7852 7.64423L30.63 7.00155C30.9404 6.44334 31.2737 5.5849 31.1011 4.66311C30.8026 3.0711 29.1561 1.80226 27.0477 1.45062C27.1597 2.2604 27.0854 3.00499 26.8246 3.67338C26.4738 4.5713 25.8117 5.28008 25.2285 5.90532C24.6592 6.51495 24.1211 7.09152 24.1119 7.60934C24.1091 7.74339 24.1275 7.90038 24.1376 7.97383C24.2937 8.57795 24.571 9.03977 24.7813 9.27205L23.7997 10.1571L23.7988 10.158Z" fill="#2B323A"/>
<path id="Vector_2" d="M30.8496 23.707H23.0615C22.3011 23.707 21.4141 24.7316 21.4141 25.3596V30.3468C21.4141 30.9758 22.3011 31.9995 23.0615 31.9995H30.8496C31.6099 31.9995 32.497 30.9748 32.497 30.3468V25.3596C32.497 24.7307 31.6099 23.707 30.8496 23.707ZM31.1747 30.6783H22.7355V25.0291H31.1747V30.6783Z" fill="#2B323A"/>
<path id="Vector_3" d="M30.8526 12.5391H16.0927C15.3324 12.5391 14.4453 13.5637 14.4453 14.1917V19.1789C14.4453 19.8078 15.3324 20.8315 16.0927 20.8315H30.8526C31.6129 20.8315 32.5 19.8069 32.5 19.1789V14.1917C32.5 13.5628 31.6129 12.5391 30.8526 12.5391ZM31.1786 19.5103H15.7667V13.8611H31.1786V19.5103Z" fill="#2B323A"/>
<path id="Vector_4" d="M16.9073 23.707H2.14743C1.38708 23.707 0.5 24.7316 0.5 25.3596V30.3468C0.5 30.9758 1.38708 31.9995 2.14743 31.9995H16.9073C17.6676 31.9995 18.5547 30.9748 18.5547 30.3468V25.3596C18.5547 24.7307 17.6676 23.707 16.9073 23.707ZM17.2333 30.6783H1.82143V25.0291H17.2333V30.6783Z" fill="#2B323A"/>
</g>
</svg>
