<svg width="33" height="32" viewBox="0 0 33 32" fill="none" xmlns="http://www.w3.org/2000/svg">
<g id="&#208;&#160;&#208;&#142;&#208;&#160;&#194;&#187;&#208;&#160;&#209;&#149;&#208;&#160;&#226;&#132;&#150; 1">
<g id="Group">
<path id="Vector" d="M24.1182 23.3098L23.2031 24.2715L31.4264 32.1306L32.3415 31.1689L24.1182 23.3098Z" fill="#2B323A"/>
<path id="Vector_2" d="M13.2918 25.7708C6.23644 25.7708 0.5 20.0182 0.5 12.9508C0.5 5.8835 6.23644 0.130859 13.2918 0.130859C20.3471 0.130859 26.0835 5.87995 26.0835 12.9508C26.0835 20.0217 20.3471 25.7708 13.2918 25.7708ZM13.2918 1.46331C6.96679 1.45976 1.82598 6.61546 1.82598 12.9508C1.82598 19.2862 6.97034 24.4419 13.2918 24.4419C19.6132 24.4419 24.7576 19.2862 24.7576 12.9508C24.7576 6.61546 19.6132 1.45976 13.2918 1.45976V1.46331Z" fill="#2B323A"/>
<path id="Vector_3" d="M12.1939 17.1577C11.6053 17.1577 11.0416 16.9232 10.6268 16.5039C10.1801 16.0562 9.94963 15.4344 9.98863 14.8055L10.0099 14.4608C10.0276 14.2014 10.1375 13.9563 10.3184 13.7715L12.949 11.135C13.105 10.9787 13.3142 10.8863 13.5376 10.8756L13.8283 10.865C14.4771 10.8401 15.1117 11.0888 15.5726 11.5472C16.0335 12.0056 16.2852 12.6416 16.264 13.2918L16.2533 13.6258C16.2462 13.8319 16.1612 14.0238 16.0158 14.173L13.3284 16.8664C13.1653 17.0298 12.949 17.1257 12.7221 17.1399L12.318 17.1613C12.2754 17.1613 12.2364 17.1613 12.1939 17.1613V17.1577ZM11.1125 14.5461L11.0912 14.873C11.07 15.1928 11.1834 15.4948 11.4103 15.7187C11.6337 15.9461 11.935 16.0598 12.2541 16.042L12.5909 16.0242L15.1472 13.4624L15.1543 13.2492C15.1649 12.901 15.0373 12.5776 14.7926 12.3325C14.548 12.0873 14.2218 11.9629 13.8744 11.9736L13.6723 11.9807L11.1161 14.5426L11.1125 14.5461Z" fill="#2B323A"/>
<path id="Vector_4" d="M17.1346 12.7413L14.7202 12.2083L14.2734 9.79567L15.7554 8.21094L16.5638 8.97132L15.4682 10.1474L15.6774 11.2809L16.7729 11.5225L17.9358 10.3393L18.7264 11.121L17.1346 12.7413Z" fill="#2B323A"/>
</g>
</g>
</svg>
