<svg width="32" height="32" viewBox="0 0 32 32" fill="none" xmlns="http://www.w3.org/2000/svg">
<g id="&#208;&#160;&#208;&#142;&#208;&#160;&#194;&#187;&#208;&#160;&#209;&#149;&#208;&#160;&#226;&#132;&#150; 1">
<g id="Group">
<path id="Vector" d="M16.5937 31.8645C15.3969 31.8645 14.4219 30.8874 14.4219 29.6881C14.4219 28.4888 15.3969 27.5117 16.5937 27.5117C17.7905 27.5117 18.7655 28.4888 18.7655 29.6881C18.7655 30.8874 17.7905 31.8645 16.5937 31.8645ZM16.5937 28.8309C16.122 28.8309 15.7383 29.2154 15.7383 29.6881C15.7383 30.1607 16.122 30.5452 16.5937 30.5452C17.0654 30.5452 17.449 30.1607 17.449 29.6881C17.449 29.2154 17.0654 28.8309 16.5937 28.8309Z" fill="#2B323A"/>
<path id="Vector_2" d="M29.6171 31.882C28.4203 31.882 27.4453 30.905 27.4453 29.7057C27.4453 28.5064 28.4203 27.5293 29.6171 27.5293C30.8139 27.5293 31.7889 28.5064 31.7889 29.7057C31.7889 30.905 30.8139 31.882 29.6171 31.882ZM29.6171 28.8485C29.1455 28.8485 28.7618 29.233 28.7618 29.7057C28.7618 30.1783 29.1455 30.5628 29.6171 30.5628C30.0888 30.5628 30.4725 30.1783 30.4725 29.7057C30.4725 29.233 30.0888 28.8485 29.6171 28.8485Z" fill="#2B323A"/>
<path id="Vector_3" d="M2.17182 31.9211C0.97503 31.9211 0 30.944 0 29.7447C0 28.5454 0.97503 27.5684 2.17182 27.5684C3.36861 27.5684 4.34364 28.5454 4.34364 29.7447C4.34364 30.944 3.36861 31.9211 2.17182 31.9211ZM2.17182 28.8876C1.70014 28.8876 1.31647 29.2721 1.31647 29.7447C1.31647 30.2174 1.70014 30.6019 2.17182 30.6019C2.64349 30.6019 3.02717 30.2174 3.02717 29.7447C3.02717 29.2721 2.64349 28.8876 2.17182 28.8876Z" fill="#2B323A"/>
<path id="Vector_4" d="M17.2497 17.4707H15.9297V28.1691H17.2497V17.4707Z" fill="#2B323A"/>
<path id="Vector_5" d="M10.345 29.4314L10.2817 17.6289L8.9617 17.636L9.02506 29.2374H3.59375V30.5601H9.22569C9.66921 30.3591 10.1479 29.9076 10.345 29.4314Z" fill="#2B323A"/>
<path id="Vector_6" d="M23.8068 30.5037L27.971 30.479L27.9639 29.1562L24.0075 29.1774L24.0216 17.6289H22.7016L22.6875 29.3291C22.8705 29.7841 23.3246 30.2885 23.8068 30.5002V30.5037Z" fill="#2B323A"/>
<path id="Vector_7" d="M29.3595 17.0678V1.09607C29.1518 0.676315 28.7364 0.238925 28.3 0.0449219H4.0826C3.67077 0.214234 3.22373 0.598714 2.98438 1.02905V17.0396C3.17445 17.4312 3.53701 17.8403 3.93477 18.052H28.3387C28.7294 17.865 29.1377 17.4841 29.3559 17.0678H29.3595ZM28.0395 16.7292H4.30436V1.36767H28.0395V16.7292Z" fill="#2B323A"/>
</g>
</g>
</svg>
