<svg width="33" height="30" viewBox="0 0 33 30" fill="none" xmlns="http://www.w3.org/2000/svg">
<g id="Group">
<path id="Vector" d="M25.698 28.4414H7.25V29.7677H25.698V28.4414Z" fill="#2B323A"/>
<g id="Group_2">
<path id="Vector_2" d="M13.6232 22.9785H12.2969V29.2889H13.6232V22.9785Z" fill="#2B323A"/>
<path id="Vector_3" d="M20.8263 23.0977H19.5V29.468H20.8263V23.0977Z" fill="#2B323A"/>
<path id="Vector_4" d="M31.1153 0.300781H1.76783C1.28811 0.470093 0.730793 0.956866 0.515625 1.47538V22.6077C0.515625 22.6359 0.515625 22.6606 0.519152 22.6888C0.737847 23.1226 1.17524 23.5777 1.63379 23.7611C1.6479 23.7611 1.65848 23.7611 1.66906 23.7611H31.2105C31.2105 23.7611 31.2352 23.7611 31.2458 23.7611C31.7008 23.5777 32.1417 23.1262 32.3604 22.6888C32.3604 22.6606 32.3639 22.6359 32.3639 22.6077V1.47538C32.1488 0.960393 31.5915 0.470093 31.1117 0.300781H31.1153ZM31.0412 22.4313H1.8419V1.62706H31.0412V22.4313Z" fill="#2B323A"/>
<path id="Vector_5" d="M22.6184 12.1141L19.2639 12.1318L18.4596 8.67499C18.4244 8.53037 18.3573 8.39986 18.2621 8.29404C17.7824 8.24465 17.1439 8.40338 16.7348 8.71732L14.5302 14.1812L13.5954 12.5198C13.3662 12.3011 13.0804 12.1141 12.7912 12.0083H10.2656V13.3311H12.5372L13.6166 15.2535C13.7683 15.5251 14.0187 15.7085 14.3115 15.779C14.7418 15.7191 15.2815 15.4193 15.6201 15.0277L17.5002 10.3646L17.9975 12.5021C18.2515 12.9148 18.703 13.317 19.1475 13.4545L22.6289 13.4369L22.6219 12.1141H22.6184Z" fill="#2B323A"/>
</g>
</g>
</svg>
