<svg width="32" height="29" viewBox="0 0 32 29" fill="none" xmlns="http://www.w3.org/2000/svg">
<g id="&#208;&#160;&#208;&#142;&#208;&#160;&#194;&#187;&#208;&#160;&#209;&#149;&#208;&#160;&#226;&#132;&#150; 1">
<g id="Group">
<path id="Vector" d="M20.3931 7.08697L11.7188 15.4922L12.6321 16.4339L21.3064 8.0287L20.3931 7.08697Z" fill="#2B323A"/>
<path id="Vector_2" d="M30.8347 0.25H1.18746C0.750069 0.415712 0.256242 0.838806 0.0234375 1.30421V22.4977C0.242132 22.9278 0.690104 23.3791 1.14866 23.5554H2.81709V28.9992L12.7465 23.5554H30.6125C31.0852 23.3897 31.6354 22.8855 31.84 22.3602V1.39588C31.6813 0.96926 31.2792 0.489753 30.8347 0.25ZM30.5278 22.2438H12.4114L4.12926 26.785V22.2438H1.33561V1.56159H30.5278V22.2403V22.2438Z" fill="#2B323A"/>
<path id="Vector_3" d="M13.5409 8.06248L12.6238 7.12109L10.7155 8.97566C10.5462 9.43048 10.5215 10.0757 10.7085 10.5376L12.5215 12.4556L13.4739 11.553L11.7843 9.76543L13.5374 8.06248H13.5409Z" fill="#2B323A"/>
<path id="Vector_4" d="M22.5693 12.7056L20.8374 10.7559L19.8568 11.6267L21.49 13.4637L19.6875 15.1137L20.5729 16.0833L22.5729 14.2534C22.7386 13.7986 22.7598 13.1604 22.5729 12.7056H22.5693Z" fill="#2B323A"/>
</g>
</g>
</svg>
