<svg width="28" height="32" viewBox="0 0 28 32" fill="none" xmlns="http://www.w3.org/2000/svg">
<g id="&#208;&#160;&#208;&#142;&#208;&#160;&#194;&#187;&#208;&#160;&#209;&#149;&#208;&#160;&#226;&#132;&#150; 1">
<g id="Group">
<path id="Vector" d="M17.776 8.96771C18.3253 8.96771 18.7707 8.52678 18.7707 7.98288C18.7707 7.43897 18.3253 6.99805 17.776 6.99805C17.2266 6.99805 16.7812 7.43897 16.7812 7.98288C16.7812 8.52678 17.2266 8.96771 17.776 8.96771Z" fill="#2B323A"/>
<path id="Vector_2" d="M26.8325 9.23271L14.2928 0.0828662C13.8201 -0.0533337 13.1675 -0.0253953 12.7019 0.19462L5.36508 10.0499C5.26984 10.5109 5.33686 11.129 5.57672 11.5691L9.36861 14.3385L0 26.9247L0.405644 30.9409C0.698413 31.3006 1.16755 31.6289 1.62258 31.7406L5.24162 30.7209L10.2293 24.302L9.14991 23.4778L4.43739 29.544L1.71429 30.3123L1.41093 27.3054L10.6878 14.8414C10.7619 14.4258 10.7125 13.9019 10.5256 13.5038L6.61376 10.6506L13.6049 1.25977L25.8624 10.2071L18.8713 19.5979L14.8607 16.6713L14.0529 17.7574L18.2328 20.8062C18.7196 20.9145 19.3792 20.8446 19.8272 20.5897L27.0653 10.8671C27.1817 10.3782 27.1076 9.6902 26.8325 9.23271Z" fill="#2B323A"/>
</g>
</g>
</svg>
