<svg width="33" height="30" viewBox="0 0 33 30" fill="none" xmlns="http://www.w3.org/2000/svg">
<g id="&#208;&#160;&#208;&#142;&#208;&#160;&#194;&#187;&#208;&#160;&#209;&#149;&#208;&#160;&#226;&#132;&#150; 1">
<g id="Group">
<path id="Vector" d="M16.865 20.6955C13.7677 20.6955 11.25 18.1523 11.25 15.0235C11.25 11.8948 13.7677 9.35156 16.865 9.35156C19.9624 9.35156 22.48 11.8948 22.48 15.0235C22.48 18.1523 19.9624 20.6955 16.865 20.6955ZM16.865 10.6884C14.4975 10.6884 12.5734 12.632 12.5734 15.0235C12.5734 17.4151 14.4975 19.3586 16.865 19.3586C19.2325 19.3586 21.1566 17.4151 21.1566 15.0235C21.1566 12.632 19.2325 10.6884 16.865 10.6884Z" fill="#2B323A"/>
<path id="Vector_2" d="M26.3483 27.6327L32.1554 21.541L31.2021 20.6133L25.5138 26.578L22.3186 23.3399L21.3828 24.2817L24.763 27.7068C25.2414 27.8584 25.8944 27.8514 26.3448 27.6292L26.3483 27.6327Z" fill="#2B323A"/>
<path id="Vector_3" d="M32.2591 12.4019C32.1264 12.0986 31.9064 11.7917 31.648 11.5624L28.8335 10.3102C27.1015 9.54126 26.0784 7.74585 26.2809 5.84814L26.5533 3.31904C26.4974 2.97689 26.3577 2.61357 26.1622 2.33491C24.919 1.38253 23.5572 0.624156 22.101 0.0774188C21.7274 0.0209814 21.2735 0.0703641 20.8963 0.22204L19.0177 1.61181C17.4917 2.74056 15.4419 2.74056 13.916 1.61181L12.0722 0.250258C11.7335 0.105637 11.325 0.028036 10.9618 0.0597821C9.46028 0.620629 8.06002 1.40017 6.78547 2.3843C6.58992 2.67354 6.43976 3.05449 6.38739 3.42486L6.4677 4.17618C6.4677 4.17618 6.47468 4.19382 6.47818 4.20088L6.4677 4.18324L6.64579 5.84814C6.85181 7.74585 5.82519 9.54126 4.09319 10.3102L1.38346 11.5166C1.13553 11.7176 0.912047 11.9857 0.768878 12.2644C0.59079 13.2379 0.5 14.2326 0.5 15.2203C0.5 15.5836 0.513968 15.9504 0.538411 16.3138C0.660629 16.7794 0.981886 17.3014 1.37298 17.573L4.09319 18.7864C5.82519 19.5554 6.84832 21.3508 6.64579 23.2485L6.23025 27.1003C6.32104 27.4143 6.48167 27.7353 6.69118 27.9857C6.86927 28.1233 7.04736 28.2608 7.22894 28.3914C7.23592 28.3914 7.24291 28.3984 7.24989 28.4019L7.23243 28.3949C8.01462 28.9557 8.8457 29.446 9.7117 29.8587C10.0853 29.9116 10.5323 29.8587 10.9024 29.7106L13.909 27.4848C15.435 26.3561 17.4847 26.3561 19.0107 27.4848L19.7929 26.4055C17.799 24.931 15.1207 24.931 13.1268 26.4055L10.1656 28.5959C9.25076 28.1515 8.38127 27.6118 7.57115 26.9839L7.95875 23.3896C8.22414 20.9099 6.88673 18.5642 4.62746 17.5589L1.86534 16.3279C1.83741 15.9575 1.82344 15.5871 1.82344 15.2167C1.82344 14.3667 1.89677 13.5166 2.03645 12.6806L4.62396 11.5272C6.88324 10.5219 8.22414 8.17618 7.95526 5.69647L7.70035 3.34373C8.80729 2.50423 10.019 1.83403 11.311 1.34021L13.1233 2.68059C15.1172 4.15502 17.7955 4.15502 19.7894 2.68059L21.6296 1.31904C22.9112 1.80229 24.1159 2.4619 25.2193 3.2873L24.9609 5.69294C24.6955 8.17266 26.033 10.5183 28.2922 11.5236L30.967 12.7159C31.1067 13.5377 31.1766 14.3772 31.1766 15.2132C31.1766 15.5695 31.1626 15.9293 31.1382 16.2891L28.2922 17.5554L28.8265 18.7794L31.6165 17.5377C31.9657 17.2908 32.301 16.8711 32.4511 16.4478C32.4825 16.0386 32.4965 15.6259 32.4965 15.2167C32.4965 14.275 32.4127 13.3261 32.2521 12.3984L32.2591 12.4019Z" fill="#2B323A"/>
</g>
</g>
</svg>
