<svg width="24" height="24" viewBox="0 0 24 24" fill="none" xmlns="http://www.w3.org/2000/svg">
<g id="24 / Actions / Rating ">
<path id="Union" fill-rule="evenodd" clip-rule="evenodd" d="M14.1417 8.97952L13.793 8.20457L11.999 4.21662L10.2051 8.20455L9.85646 8.9795L9.01254 9.07889L4.64637 9.59308L7.95878 12.3469L8.67903 12.9457L8.45714 13.8557L7.444 18.0107L11.2647 15.8659L11.999 15.4538L12.7332 15.8659L16.5549 18.0112L15.5425 13.8554L15.3208 12.9456L16.0409 12.3469L19.3532 9.59315L14.9856 9.07889L14.1417 8.97952ZM8.8371 7.58918L3.3139 8.23964C2.44122 8.34241 2.11588 9.43999 2.79157 10.0017L6.99984 13.5003L5.71422 18.7729C5.50711 19.6223 6.41289 20.3097 7.17525 19.8818L11.999 17.174L16.8234 19.8821C17.5857 20.31 18.4914 19.6227 18.2845 18.7734L16.9998 13.5003L21.2081 10.0018C21.8838 9.44003 21.5584 8.34244 20.6857 8.23968L15.161 7.58918L12.911 2.5876C12.5572 1.80128 11.4408 1.80128 11.087 2.58762L8.8371 7.58918Z" fill="#FE6E36"/>
</g>
</svg>
