<svg width="25" height="24" viewBox="0 0 25 24" fill="none" xmlns="http://www.w3.org/2000/svg">
<path d="M21.2149 3.0413C21.9387 2.82952 22.6272 3.46482 22.4747 4.20341L19.1631 20.2132L19.1231 20.3528C18.8991 20.978 18.1222 21.2128 17.5899 20.8157L17.4796 20.721L10.3624 13.6643C10.2812 13.5839 10.1865 13.5176 10.0831 13.469L3.07428 10.178C2.24154 9.78637 2.33572 8.57184 3.21881 8.31278L21.2149 3.0413ZM4.90631 9.38114L9.84577 11.7005L16.5391 7.90848C17.0468 7.62085 17.5521 8.28769 17.1378 8.69852L12.3106 13.4837L17.8799 19.0061L20.837 4.71415L4.90631 9.38114Z" fill="#FE6E36"/>
</svg>
