<svg width="24" height="24" viewBox="0 0 24 24" fill="none" xmlns="http://www.w3.org/2000/svg">
<path d="M12 13C16.3858 13 20 16.5556 20 20.9414L19.999 21H18.499C18.4992 20.9805 18.5 20.961 18.5 20.9414C18.5 17.3984 15.5718 14.5 12 14.5C8.4282 14.5 5.5 17.3984 5.5 20.9414C5.5 20.961 5.50077 20.9805 5.50098 21H4.00098L4 20.9414C4 16.5556 7.61421 13 12 13ZM12.2061 3.00488C14.3194 3.11211 16 4.85996 16 7L15.9951 7.20605C15.8879 9.31944 14.14 11 12 11L11.7939 10.9951C9.7488 10.8913 8.10865 9.2512 8.00488 7.20605L8 7C8 4.79086 9.79086 3 12 3L12.2061 3.00488ZM12 4.5C10.6193 4.5 9.5 5.61929 9.5 7C9.5 8.38071 10.6193 9.5 12 9.5C13.3807 9.5 14.5 8.38071 14.5 7C14.5 5.61929 13.3807 4.5 12 4.5Z" fill="#FE6E36"/>
</svg>
