<svg viewBox="0 0 40 40" xmlns="http://www.w3.org/2000/svg" xmlns:xlink="http://www.w3.org/1999/xlink" width="40.000000" height="40.000000" fill="none">
	<rect id="Icon" width="40.000000" height="40.000000" x="0.000000" y="0.000000" fill="rgb(255,255,255)" fill-opacity="0" />
	<path id="Vector" />
	<path id="Vector" d="M20 21.875C21.0355 21.875 21.875 21.0355 21.875 20C21.875 18.9645 21.0355 18.125 20 18.125C18.9645 18.125 18.125 18.9645 18.125 20C18.125 21.0355 18.9645 21.875 20 21.875Z" fill="rgb(255,255,255)" fill-rule="nonzero" />
	<path id="Vector" d="M21.875 20C21.875 21.0355 21.0355 21.875 20 21.875C18.9645 21.875 18.125 21.0355 18.125 20C18.125 18.9645 18.9645 18.125 20 18.125C21.0355 18.125 21.875 18.9645 21.875 20ZM20.3874 21.7073Q20.1985 21.75 20 21.75Q19.8015 21.75 19.6126 21.7073Q19.4627 21.6734 19.3189 21.6125Q19.1722 21.5505 19.0412 21.4646Q18.8917 21.3666 18.7626 21.2374Q18.6334 21.1083 18.5354 20.9587Q18.4495 20.8278 18.3875 20.6811Q18.3266 20.5373 18.2927 20.3874Q18.25 20.1985 18.25 20Q18.25 19.8015 18.2927 19.6126Q18.3266 19.4627 18.3875 19.3189Q18.4495 19.1722 18.5354 19.0412Q18.6334 18.8917 18.7626 18.7626Q18.8917 18.6334 19.0412 18.5354Q19.1722 18.4495 19.3189 18.3875Q19.4627 18.3266 19.6126 18.2927Q19.8015 18.25 20 18.25Q20.1985 18.25 20.3874 18.2927Q20.5373 18.3266 20.6811 18.3875Q20.8278 18.4495 20.9587 18.5354Q21.1083 18.6334 21.2374 18.7626Q21.3666 18.8917 21.4646 19.0412Q21.5505 19.1722 21.6125 19.3189Q21.6734 19.4627 21.7073 19.6126Q21.75 19.8015 21.75 20Q21.75 20.1985 21.7073 20.3874Q21.6734 20.5373 21.6125 20.6811Q21.5505 20.8278 21.4646 20.9587Q21.3666 21.1083 21.2374 21.2374Q21.1083 21.3666 20.9587 21.4646Q20.8278 21.5505 20.6811 21.6125Q20.5373 21.6734 20.3874 21.7073Z" fill="rgb(255,255,255)" fill-rule="evenodd" />
	<path id="Vector" d="M13.125 21.875C14.1605 21.875 15 21.0355 15 20C15 18.9645 14.1605 18.125 13.125 18.125C12.0895 18.125 11.25 18.9645 11.25 20C11.25 21.0355 12.0895 21.875 13.125 21.875Z" fill="rgb(255,255,255)" fill-rule="nonzero" />
	<path id="Vector" d="M15 20C15 21.0355 14.1605 21.875 13.125 21.875C12.0895 21.875 11.25 21.0355 11.25 20C11.25 18.9645 12.0895 18.125 13.125 18.125C14.1605 18.125 15 18.9645 15 20ZM13.5124 21.7073Q13.3235 21.75 13.125 21.75Q12.9265 21.75 12.7376 21.7073Q12.5877 21.6734 12.4439 21.6125Q12.2972 21.5505 12.1662 21.4646Q12.0167 21.3666 11.8876 21.2374Q11.7584 21.1083 11.6604 20.9587Q11.5745 20.8278 11.5125 20.6811Q11.4516 20.5373 11.4177 20.3874Q11.375 20.1985 11.375 20Q11.375 19.8015 11.4177 19.6126Q11.4516 19.4627 11.5125 19.3189Q11.5745 19.1722 11.6604 19.0412Q11.7584 18.8917 11.8876 18.7626Q12.0167 18.6334 12.1662 18.5354Q12.2972 18.4495 12.4439 18.3875Q12.5877 18.3266 12.7376 18.2927Q12.9265 18.25 13.125 18.25Q13.3235 18.25 13.5124 18.2927Q13.6623 18.3266 13.8061 18.3875Q13.9528 18.4495 14.0837 18.5354Q14.2333 18.6334 14.3624 18.7626Q14.4916 18.8917 14.5896 19.0412Q14.6755 19.1722 14.7375 19.3189Q14.7984 19.4627 14.8323 19.6126Q14.875 19.8015 14.875 20Q14.875 20.1985 14.8323 20.3874Q14.7984 20.5373 14.7375 20.6811Q14.6755 20.8278 14.5896 20.9587Q14.4916 21.1083 14.3624 21.2374Q14.2333 21.3666 14.0837 21.4646Q13.9528 21.5505 13.8061 21.6125Q13.6623 21.6734 13.5124 21.7073Z" fill="rgb(255,255,255)" fill-rule="evenodd" />
	<path id="Vector" d="M26.875 21.875C27.9105 21.875 28.75 21.0355 28.75 20C28.75 18.9645 27.9105 18.125 26.875 18.125C25.8395 18.125 25 18.9645 25 20C25 21.0355 25.8395 21.875 26.875 21.875Z" fill="rgb(255,255,255)" fill-rule="nonzero" />
	<path id="Vector" d="M28.75 20C28.75 21.0355 27.9105 21.875 26.875 21.875C25.8395 21.875 25 21.0355 25 20C25 18.9645 25.8395 18.125 26.875 18.125C27.9105 18.125 28.75 18.9645 28.75 20ZM27.2624 21.7073Q27.0735 21.75 26.875 21.75Q26.6765 21.75 26.4876 21.7073Q26.3377 21.6734 26.1939 21.6125Q26.0472 21.5505 25.9162 21.4646Q25.7667 21.3666 25.6376 21.2374Q25.5084 21.1083 25.4104 20.9587Q25.3245 20.8278 25.2625 20.6811Q25.2016 20.5373 25.1677 20.3874Q25.125 20.1985 25.125 20Q25.125 19.8015 25.1677 19.6126Q25.2016 19.4627 25.2625 19.3189Q25.3245 19.1722 25.4104 19.0412Q25.5084 18.8917 25.6376 18.7626Q25.7667 18.6334 25.9162 18.5354Q26.0472 18.4495 26.1939 18.3875Q26.3377 18.3266 26.4876 18.2927Q26.6765 18.25 26.875 18.25Q27.0735 18.25 27.2624 18.2927Q27.4123 18.3266 27.5561 18.3875Q27.7028 18.4495 27.8337 18.5354Q27.9833 18.6334 28.1124 18.7626Q28.2416 18.8917 28.3396 19.0412Q28.4255 19.1722 28.4875 19.3189Q28.5484 19.4627 28.5823 19.6126Q28.625 19.8015 28.625 20Q28.625 20.1985 28.5823 20.3874Q28.5484 20.5373 28.4875 20.6811Q28.4255 20.8278 28.3396 20.9587Q28.2416 21.1083 28.1124 21.2374Q27.9833 21.3666 27.8337 21.4646Q27.7028 21.5505 27.5561 21.6125Q27.4123 21.6734 27.2624 21.7073Z" fill="rgb(255,255,255)" fill-rule="evenodd" />
	<path id="Vector" d="M22.9161 34.718C26.4872 34.0106 29.6791 32.0286 31.8968 29.1416C34.1145 26.2546 35.2066 22.6596 34.9695 19.0268C34.7323 15.3941 33.1822 11.9715 30.6079 9.39732C28.0337 6.82311 24.6112 5.27292 20.9784 5.03578C17.3457 4.79864 13.7507 5.89073 10.8636 8.10845C7.97662 10.3262 5.99465 13.5181 5.28726 17.0892C4.57986 20.6603 5.19532 24.3668 7.01889 27.5176L5.0642 33.3536C4.99075 33.5738 4.98009 33.8102 5.03342 34.0361C5.08674 34.2621 5.20195 34.4687 5.36612 34.6329C5.53029 34.7971 5.73693 34.9123 5.96289 34.9656C6.18886 35.0189 6.42521 35.0083 6.64545 34.9348L12.4876 32.9864C15.6385 34.81 19.345 35.4254 22.9161 34.718Z" fill-rule="nonzero" stroke="rgb(255,255,255)" stroke-linecap="round" stroke-linejoin="round" stroke-width="2" />
</svg>
