<svg viewBox="0 0 40 40" xmlns="http://www.w3.org/2000/svg" xmlns:xlink="http://www.w3.org/1999/xlink" width="40.000000" height="40.000000" fill="none">
	<rect id="Icon" width="40.000000" height="40.000000" x="0.000000" y="0.000000" />
	<path id="Vector" />
	<path id="Vector" d="M3.75 33.75L38.75 33.75" stroke="rgb(255,255,255)" stroke-linecap="round" stroke-linejoin="round" stroke-width="2" />
	<path id="Vector" d="M0 0L27.5 0" stroke="rgb(255,255,255)" stroke-linecap="round" stroke-linejoin="round" stroke-width="2" transform="matrix(0,1,-1,0,7.5,6.25)" />
	<path id="Vector" d="M27.5 0L0 0" stroke="rgb(255,255,255)" stroke-linecap="round" stroke-linejoin="round" stroke-width="2" transform="matrix(0,1,-1,0,27.5,6.25)" />
	<path id="Vector" d="M20 0L0 0" stroke="rgb(255,255,255)" stroke-linecap="round" stroke-linejoin="round" stroke-width="2" transform="matrix(0,1,-1,0,35,13.75)" />
	<path id="Vector" d="M12.5 12.5L15 12.5" stroke="rgb(255,255,255)" stroke-linecap="round" stroke-linejoin="round" stroke-width="2" />
	<path id="Vector" d="M20 12.5L22.5 12.5" stroke="rgb(255,255,255)" stroke-linecap="round" stroke-linejoin="round" stroke-width="2" />
	<path id="Vector" d="M12.5 18.75L15 18.75" stroke="rgb(255,255,255)" stroke-linecap="round" stroke-linejoin="round" stroke-width="2" />
	<path id="Vector" d="M20 18.75L22.5 18.75" stroke="rgb(255,255,255)" stroke-linecap="round" stroke-linejoin="round" stroke-width="2" />
	<path id="Vector" d="M13.75 33.75L13.75 25L21.25 25L21.25 33.75" fill-rule="nonzero" stroke="rgb(255,255,255)" stroke-linecap="round" stroke-linejoin="round" stroke-width="2" />
	<path id="Vector" d="M6.25 6.25L28.75 6.25" stroke="rgb(255,255,255)" stroke-linecap="round" stroke-linejoin="round" stroke-width="2" />
	<path id="Vector" d="M27.5 13.75L36.25 13.75" stroke="rgb(255,255,255)" stroke-linecap="round" stroke-linejoin="round" stroke-width="2" />
</svg>
