<svg viewBox="0 0 40 40" xmlns="http://www.w3.org/2000/svg" xmlns:xlink="http://www.w3.org/1999/xlink" width="40.000000" height="40.000000" fill="none">
	<rect id="Icon" width="40.000000" height="40.000000" x="0.000000" y="0.000000" fill="rgb(255,255,255)" fill-opacity="0" />
	<path id="Vector" />
	<path id="Vector" d="M11.875 33.75C9.45875 33.75 7.5 31.7912 7.5 29.375C7.5 26.9588 9.45875 25 11.875 25C14.2912 25 16.25 26.9588 16.25 29.375C16.25 31.7912 14.2912 33.75 11.875 33.75Z" stroke="rgb(255,255,255)" stroke-linecap="round" stroke-linejoin="round" stroke-width="2" />
	<path id="Vector" d="M7.5 11.25L13.75 17.5" stroke="rgb(255,255,255)" stroke-linecap="round" stroke-linejoin="round" stroke-width="2" />
	<path id="Vector" d="M13.75 11.25L7.5 17.5" stroke="rgb(255,255,255)" stroke-linecap="round" stroke-linejoin="round" stroke-width="2" />
	<path id="Vector" d="M28.75 26.25L35 32.5" stroke="rgb(255,255,255)" stroke-linecap="round" stroke-linejoin="round" stroke-width="2" />
	<path id="Vector" d="M35 26.25L28.75 32.5" stroke="rgb(255,255,255)" stroke-linecap="round" stroke-linejoin="round" stroke-width="2" />
	<path id="Vector" d="M22.5 12.5L22.5 6.25L28.75 6.25" fill-rule="nonzero" stroke="rgb(255,255,255)" stroke-linecap="round" stroke-linejoin="round" stroke-width="2" />
	<path id="Vector" d="M22.5 6.25L25 8.75C31.25 15 26.25 22.5 21.25 23.75" fill-rule="nonzero" stroke="rgb(255,255,255)" stroke-linecap="round" stroke-linejoin="round" stroke-width="2" />
</svg>
