<svg viewBox="0 0 40 40" xmlns="http://www.w3.org/2000/svg" xmlns:xlink="http://www.w3.org/1999/xlink" width="40.000000" height="40.000000" fill="none">
	<rect id="Icon" width="40.000000" height="40.000000" x="0.000000" y="0.000000" fill="rgb(255,255,255)" fill-opacity="0" />
	<path id="Vector" />
	<path id="Vector" d="M31.9571 24.4571C32.3476 24.0666 32.3476 23.4334 31.9571 23.0429C31.5666 22.6524 30.9334 22.6524 30.5429 23.0429L31.25 23.75L31.9571 24.4571ZM25 30L24.7575 30.9701C25.0982 31.0553 25.4587 30.9555 25.7071 30.7071L25 30ZM15 27.5L14.4188 28.3137C14.5209 28.3867 14.6358 28.4397 14.7575 28.4701L15 27.5ZM6.83124 20.4363C6.38183 20.1153 5.75728 20.2193 5.43627 20.6688C5.11526 21.1182 5.21935 21.7427 5.66876 22.0637L6.25 21.25L6.83124 20.4363ZM31.25 23.75L30.5429 23.0429L24.2929 29.2929L25 30L25.7071 30.7071L31.9571 24.4571L31.25 23.75ZM25 30L25.2425 29.0299L15.2425 26.5299L15 27.5L14.7575 28.4701L24.7575 30.9701L25 30ZM15 27.5L15.5812 26.6863L6.83124 20.4363L6.25 21.25L5.66876 22.0637L14.4188 28.3137L15 27.5Z" fill-rule="nonzero" stroke="rgb(255,255,255)" stroke-linecap="round" stroke-linejoin="round" stroke-width="2" />
	<path id="Vector" d="M11.0998 10.0692C10.5659 10.2104 10.2475 10.7577 10.3887 11.2916C10.5299 11.8255 11.0772 12.1439 11.6111 12.0027L11.3555 11.0359L11.0998 10.0692ZM19.9992 8.75L20.2549 7.78324C20.0873 7.73892 19.9111 7.73892 19.7435 7.78324L19.9992 8.75ZM28.3873 12.0027C28.9212 12.1439 29.4685 11.8255 29.6097 11.2916C29.7509 10.7577 29.4326 10.2104 28.8986 10.0692L28.643 11.0359L28.3873 12.0027ZM11.3555 11.0359L11.6111 12.0027L20.2549 9.71676L19.9992 8.75L19.7435 7.78324L11.0998 10.0692L11.3555 11.0359ZM19.9992 8.75L19.7435 9.71676L28.3873 12.0027L28.643 11.0359L28.8986 10.0692L20.2549 7.78324L19.9992 8.75Z" fill-rule="nonzero" stroke="rgb(255,255,255)" stroke-linecap="round" stroke-linejoin="round" stroke-width="2" />
	<path id="Vector" d="M5.36951 9.44045L4.4753 8.99281L4.47502 8.99338L5.36951 9.44045ZM1.38201 17.4186L2.2764 17.8659L2.27651 17.8657L1.38201 17.4186ZM1.93983 19.0951L1.49168 19.9891L1.49261 19.9896L1.93983 19.0951ZM6.2492 21.2498L5.80199 22.1443C6.03921 22.2629 6.31384 22.2824 6.56546 22.1985C6.81707 22.1146 7.02506 21.9342 7.14365 21.697L6.2492 21.2498ZM11.3554 11.0358L12.2499 11.4829C12.3685 11.2457 12.388 10.971 12.3041 10.7194C12.2202 10.4678 12.0398 10.2599 11.8025 10.1413L11.3554 11.0358ZM7.04764 8.88264L6.59935 9.77653L6.60055 9.77713L7.04764 8.88264ZM5.36951 9.44045L4.47502 8.99338L0.487516 16.9715L1.38201 17.4186L2.27651 17.8657L6.26401 9.88752L5.36951 9.44045ZM1.38201 17.4186L0.487622 16.9713C0.220876 17.5047 0.176795 18.1221 0.365066 18.688L1.31393 18.3723L2.26279 18.0566C2.24187 17.9937 2.24676 17.9251 2.2764 17.8659L1.38201 17.4186ZM1.31393 18.3723L0.365066 18.688C0.553337 19.2539 0.958557 19.7218 1.49168 19.9891L1.93983 19.0951L2.38797 18.2012C2.32873 18.1715 2.2837 18.1195 2.26279 18.0566L1.31393 18.3723ZM1.93983 19.0951L1.49261 19.9896L5.80199 22.1443L6.2492 21.2498L6.69641 20.3554L2.38704 18.2007L1.93983 19.0951ZM6.2492 21.2498L7.14365 21.697L12.2499 11.4829L11.3554 11.0358L10.461 10.5886L5.35475 20.8027L6.2492 21.2498ZM11.3554 11.0358L11.8025 10.1413L7.49472 7.98815L7.04764 8.88264L6.60055 9.77713L10.9084 11.9303L11.3554 11.0358ZM7.04764 8.88264L7.49592 7.98875C7.23168 7.85623 6.94391 7.77708 6.64907 7.75582L6.57716 8.75324L6.50526 9.75065C6.53802 9.75301 6.56999 9.7618 6.59935 9.77653L7.04764 8.88264ZM6.57716 8.75324L6.64907 7.75582C6.35422 7.73457 6.05807 7.77162 5.77756 7.86487L6.09299 8.81382L6.40842 9.76276C6.43959 9.7524 6.4725 9.74829 6.50526 9.75065L6.57716 8.75324ZM6.09299 8.81382L5.77756 7.86487C5.49704 7.95811 5.23764 8.10572 5.01419 8.29926L5.6689 9.05514L6.3236 9.81103C6.34843 9.78953 6.37725 9.77312 6.40842 9.76276L6.09299 8.81382ZM5.6689 9.05514L5.01419 8.29926C4.79075 8.4928 4.60763 8.72847 4.4753 8.99281L5.36951 9.44045L6.26373 9.88809C6.27843 9.85872 6.29878 9.83253 6.3236 9.81103L5.6689 9.05514Z" fill-rule="nonzero" stroke="rgb(255,255,255)" stroke-linecap="round" stroke-linejoin="round" stroke-width="2" />
	<path id="Vector" d="M33.7508 21.2498L32.8563 21.697C32.9749 21.9342 33.1829 22.1146 33.4345 22.1985C33.6861 22.2824 33.9608 22.2629 34.198 22.1443L33.7508 21.2498ZM38.0602 19.0951L38.5074 19.9896L38.5083 19.9891L38.0602 19.0951ZM38.618 17.4186L37.7235 17.8657L37.7236 17.8659L38.618 17.4186ZM34.6305 9.44045L35.525 8.99338L35.5247 8.99281L34.6305 9.44045ZM32.9523 8.88264L33.3994 9.77713L33.4006 9.77653L32.9523 8.88264ZM28.6445 11.0358L28.1974 10.1413C27.9602 10.2599 27.7798 10.4678 27.6959 10.7194C27.612 10.971 27.6315 11.2457 27.7501 11.4829L28.6445 11.0358ZM33.7508 21.2498L34.198 22.1443L38.5074 19.9896L38.0602 19.0951L37.6129 18.2007L33.3036 20.3554L33.7508 21.2498ZM38.0602 19.0951L38.5083 19.9891C39.0414 19.7218 39.4466 19.2539 39.6349 18.688L38.6861 18.3723L37.7372 18.0566C37.7163 18.1195 37.6713 18.1715 37.612 18.2012L38.0602 19.0951ZM38.6861 18.3723L39.6349 18.688C39.8232 18.1221 39.7791 17.5047 39.5124 16.9713L38.618 17.4186L37.7236 17.8659C37.7532 17.9251 37.7581 17.9937 37.7372 18.0566L38.6861 18.3723ZM38.618 17.4186L39.5125 16.9715L35.525 8.99338L34.6305 9.44045L33.736 9.88752L37.7235 17.8657L38.618 17.4186ZM34.6305 9.44045L35.5247 8.99281C35.3924 8.72847 35.2092 8.4928 34.9858 8.29926L34.3311 9.05514L33.6764 9.81103C33.7012 9.83254 33.7216 9.85872 33.7363 9.88809L34.6305 9.44045ZM34.3311 9.05514L34.9858 8.29926C34.7623 8.10572 34.5029 7.95811 34.2224 7.86487L33.907 8.81382L33.5916 9.76276C33.6227 9.77312 33.6516 9.78952 33.6764 9.81103L34.3311 9.05514ZM33.907 8.81382L34.2224 7.86487C33.9419 7.77162 33.6458 7.73457 33.3509 7.75582L33.4228 8.75324L33.4947 9.75065C33.5275 9.74829 33.5604 9.7524 33.5916 9.76276L33.907 8.81382ZM33.4228 8.75324L33.3509 7.75582C33.0561 7.77708 32.7683 7.85623 32.5041 7.98875L32.9523 8.88264L33.4006 9.77653C33.43 9.7618 33.462 9.75301 33.4947 9.75065L33.4228 8.75324ZM32.9523 8.88264L32.5053 7.98815L28.1974 10.1413L28.6445 11.0358L29.0916 11.9303L33.3994 9.77713L32.9523 8.88264ZM28.6445 11.0358L27.7501 11.4829L32.8563 21.697L33.7508 21.2498L34.6452 20.8027L29.539 10.5886L28.6445 11.0358Z" fill-rule="nonzero" stroke="rgb(255,255,255)" stroke-linecap="round" stroke-linejoin="round" stroke-width="2" />
	<path id="Vector" d="M28.7507 12.25C29.303 12.25 29.7507 11.8023 29.7507 11.25C29.7507 10.6977 29.303 10.25 28.7507 10.25L28.7507 11.25L28.7507 12.25ZM22.5007 11.25L22.5007 10.25C22.2408 10.25 21.991 10.3512 21.8045 10.5322L22.5007 11.25ZM15.3663 18.1703L14.6701 17.4525C14.6665 17.456 14.6629 17.4595 14.6594 17.463L15.3663 18.1703ZM15.582 20.1109L16.1205 19.2683L16.1164 19.2657L15.582 20.1109ZM25.0007 18.75L25.6254 17.9691C25.2265 17.65 24.6512 17.6829 24.2912 18.0453L25.0007 18.75ZM31.2507 23.75L30.626 24.5309C31.0239 24.8492 31.5975 24.8174 31.9578 24.4571L31.2507 23.75ZM34.4578 21.9571C34.8483 21.5666 34.8483 20.9334 34.4578 20.5429C34.0673 20.1524 33.4341 20.1524 33.0436 20.5429L33.7507 21.25L34.4578 21.9571ZM28.7507 11.25L28.7507 10.25L22.5007 10.25L22.5007 11.25L22.5007 12.25L28.7507 12.25L28.7507 11.25ZM22.5007 11.25L21.8045 10.5322L14.6701 17.4525L15.3663 18.1703L16.0626 18.8881L23.197 11.9678L22.5007 11.25ZM15.3663 18.1703L14.6594 17.463C14.4207 17.7016 14.2387 17.9909 14.1269 18.3094L15.0705 18.6405L16.0141 18.9716C16.0265 18.9362 16.0467 18.9041 16.0733 18.8776L15.3663 18.1703ZM15.0705 18.6405L14.1269 18.3094C14.0152 18.6279 13.9765 18.9674 14.0138 19.3029L15.0076 19.1925L16.0015 19.082C15.9974 19.0448 16.0017 19.007 16.0141 18.9716L15.0705 18.6405ZM15.0076 19.1925L14.0138 19.3029C14.051 19.6384 14.1633 19.9611 14.3423 20.2473L15.1901 19.7171L16.038 19.187C16.0181 19.1552 16.0057 19.1193 16.0015 19.082L15.0076 19.1925ZM15.1901 19.7171L14.3423 20.2473C14.5212 20.5335 14.7623 20.7758 15.0475 20.9562L15.582 20.1109L16.1164 19.2657C16.0847 19.2457 16.0579 19.2188 16.038 19.187L15.1901 19.7171ZM15.582 20.1109L15.0435 20.9536C18.1793 22.9575 22.4125 22.775 25.7102 19.4547L25.0007 18.75L24.2912 18.0453C21.6514 20.7031 18.4566 20.7612 16.1205 19.2683L15.582 20.1109ZM25.0007 18.75L24.376 19.5309L30.626 24.5309L31.2507 23.75L31.8754 22.9691L25.6254 17.9691L25.0007 18.75ZM31.2507 23.75L31.9578 24.4571L34.4578 21.9571L33.7507 21.25L33.0436 20.5429L30.5436 23.0429L31.2507 23.75Z" fill-rule="nonzero" stroke="rgb(255,255,255)" stroke-linecap="round" stroke-linejoin="round" stroke-width="2" />
	<path id="Vector" d="M19.1418 34.7201C19.6776 34.8541 20.2206 34.5283 20.3545 33.9925C20.4885 33.4567 20.1627 32.9138 19.6269 32.7799L19.3844 33.75L19.1418 34.7201ZM12.8656 32.1203L12.2843 32.934C12.3864 33.0069 12.5013 33.06 12.6231 33.0905L12.8656 32.1203ZM9.33136 28.366C8.88199 28.045 8.25742 28.149 7.93635 28.5983C7.61528 29.0477 7.71928 29.6723 8.16864 29.9933L8.75 29.1797L9.33136 28.366ZM19.3844 33.75L19.6269 32.7799L13.1082 31.1502L12.8656 32.1203L12.6231 33.0905L19.1418 34.7201L19.3844 33.75ZM12.8656 32.1203L13.447 31.3067L9.33136 28.366L8.75 29.1797L8.16864 29.9933L12.2843 32.934L12.8656 32.1203Z" fill-rule="nonzero" stroke="rgb(255,255,255)" stroke-linecap="round" stroke-linejoin="round" stroke-width="2" />
</svg>
