<svg viewBox="0 0 40 40" xmlns="http://www.w3.org/2000/svg" xmlns:xlink="http://www.w3.org/1999/xlink" width="40.000000" height="40.000000" fill="none">
	<rect id="Icon" width="40.000000" height="40.000000" x="0.000000" y="0.000000" fill="rgb(255,255,255)" fill-opacity="0" />
	<path id="Vector" />
	<path id="Vector" d="M15.3922 0C16.0825 0 16.6422 0.559644 16.6422 1.25L16.6422 4.78594C16.6422 5.47629 16.0825 6.03594 15.3922 6.03594L1.25 6.03594C0.559644 6.03594 0 5.47629 0 4.78594L0 1.25C0 0.559644 0.559644 0 1.25 0L15.3922 0Z" stroke="rgb(255,255,255)" stroke-linecap="round" stroke-linejoin="round" stroke-width="2" transform="matrix(0.707107,-0.707107,0.707107,0.707107,8.23438,13.749)" />
	<path id="Vector" d="M15.3922 0C16.0825 0 16.6422 0.559644 16.6422 1.25L16.6422 4.78594C16.6422 5.47629 16.0825 6.03594 15.3922 6.03594L1.25 6.03594C0.559644 6.03594 0 5.47629 0 4.78594L0 1.25C0 0.559644 0.559644 0 1.25 0L15.3922 0Z" stroke="rgb(255,255,255)" stroke-linecap="round" stroke-linejoin="round" stroke-width="2" transform="matrix(0.707107,-0.707107,0.707107,0.707107,21.9844,27.499)" />
	<path id="Vector" d="M22.7598 7.75977L32.241 17.241" stroke="rgb(255,255,255)" stroke-linecap="round" stroke-linejoin="round" stroke-width="2" />
	<path id="Vector" d="M14.0098 16.5098L23.491 25.991" stroke="rgb(255,255,255)" stroke-linecap="round" stroke-linejoin="round" stroke-width="2" />
	<path id="Vector" d="M20.6263 23.125L9.53256 34.2188C9.03469 34.7149 8.36045 34.9935 7.65756 34.9935C6.95467 34.9935 6.28044 34.7149 5.78256 34.2188C5.28641 33.7209 5.00781 33.0466 5.00781 32.3438C5.00781 31.6409 5.28641 30.9666 5.78256 30.4688L16.8763 19.375" fill-rule="nonzero" stroke="rgb(255,255,255)" stroke-linecap="round" stroke-linejoin="round" stroke-width="2" />
</svg>
