<svg viewBox="0 0 40 40" xmlns="http://www.w3.org/2000/svg" xmlns:xlink="http://www.w3.org/1999/xlink" width="40.000000" height="40.000000" fill="none">
	<rect id="Icon" width="40.000000" height="40.000000" x="0.000000" y="0.000000" fill="rgb(255,255,255)" fill-opacity="0" />
	<path id="Vector" />
	<path id="Vector" d="M30 18.75C31.4556 18.7489 32.8914 19.0873 34.1934 19.7383C35.4953 20.3892 36.6275 21.3349 37.5 22.5" fill-rule="nonzero" stroke="rgb(255,255,255)" stroke-linecap="round" stroke-linejoin="round" stroke-width="2" />
	<path id="Vector" d="M2.5 22.5C3.37249 21.3349 4.50469 20.3892 5.80663 19.7383C7.10857 19.0873 8.54438 18.7489 10 18.75" fill-rule="nonzero" stroke="rgb(255,255,255)" stroke-linecap="round" stroke-linejoin="round" stroke-width="2" />
	<path id="Vector" d="M20 28.75C16.5482 28.75 13.75 25.9518 13.75 22.5C13.75 19.0482 16.5482 16.25 20 16.25C23.4518 16.25 26.25 19.0482 26.25 22.5C26.25 25.9518 23.4518 28.75 20 28.75Z" stroke="rgb(255,255,255)" stroke-linecap="round" stroke-linejoin="round" stroke-width="2" />
	<path id="Vector" d="M11.25 33.75C12.1473 32.2273 13.4265 30.9651 14.9611 30.0882C16.4957 29.2112 18.2325 28.75 20 28.75C21.7675 28.75 23.5043 29.2112 25.0389 30.0882C26.5735 30.9651 27.8527 32.2273 28.75 33.75" fill-rule="nonzero" stroke="rgb(255,255,255)" stroke-linecap="round" stroke-linejoin="round" stroke-width="2" />
	<path id="Vector" d="M25.1562 12.5C25.39 11.5946 25.873 10.773 26.5503 10.1283C27.2276 9.48362 28.0721 9.04179 28.9879 8.85299C29.9037 8.66418 30.8541 8.73597 31.7311 9.06018C32.6082 9.3844 33.3768 9.94806 33.9496 10.6871C34.5223 11.4262 34.8764 12.3111 34.9715 13.2413C35.0667 14.1715 34.899 15.1098 34.4877 15.9495C34.0764 16.7892 33.4378 17.4968 32.6445 17.9918C31.8513 18.4869 30.9351 18.7495 30 18.75" fill-rule="nonzero" stroke="rgb(255,255,255)" stroke-linecap="round" stroke-linejoin="round" stroke-width="2" />
	<path id="Vector" d="M10.0014 18.75C9.06633 18.7495 8.15013 18.4869 7.35686 17.9918C6.56359 17.4968 5.92502 16.7892 5.51368 15.9495C5.10235 15.1098 4.93472 14.1715 5.02985 13.2413C5.12498 12.3111 5.47904 11.4262 6.05183 10.6871C6.62463 9.94806 7.39319 9.3844 8.27024 9.06018C9.1473 8.73597 10.0977 8.66418 11.0135 8.85299C11.9293 9.04179 12.7738 9.48362 13.4511 10.1283C14.1284 10.773 14.6114 11.5946 14.8451 12.5" fill-rule="nonzero" stroke="rgb(255,255,255)" stroke-linecap="round" stroke-linejoin="round" stroke-width="2" />
</svg>
