<svg viewBox="0 0 40 40" xmlns="http://www.w3.org/2000/svg" xmlns:xlink="http://www.w3.org/1999/xlink" width="40.000000" height="40.000000" fill="none">
	<rect id="Icon" width="40.000000" height="40.000000" x="0.000000" y="0.000000" />
	<path id="Vector" />
	<path id="Vector" d="M11.25 36.25C11.25 35.2554 11.6451 34.3016 12.3483 33.5984C13.0516 32.8951 14.0054 32.5 15 32.5L25 32.5C25.9946 32.5 26.9484 32.8951 27.6517 33.5984C28.3549 34.3016 28.75 35.2554 28.75 36.25" fill-rule="nonzero" stroke="rgb(255,255,255)" stroke-linecap="round" stroke-linejoin="round" stroke-width="2" />
	<path id="Vector" d="M0 0L10 0" stroke="rgb(255,255,255)" stroke-linecap="round" stroke-linejoin="round" stroke-width="2" transform="matrix(0,1,-1,0,20,26.25)" />
	<path id="Vector" d="M2.5 20L6.25 20C6.25 21.6576 6.90848 23.2473 8.08058 24.4194C9.25269 25.5915 10.8424 26.25 12.5 26.25L27.5 26.25C29.1576 26.25 30.7473 25.5915 31.9194 24.4194C33.0915 23.2473 33.75 21.6576 33.75 20L37.5 20" fill-rule="nonzero" stroke="rgb(255,255,255)" stroke-linecap="round" stroke-linejoin="round" stroke-width="2" />
	<path id="Vector" d="M13.8247 4.05574C13.5973 4.25293 13.4488 4.52552 13.4063 4.82344L11.2625 19.8234C11.2372 20.0007 11.2503 20.1814 11.3009 20.3531C11.3515 20.5249 11.4384 20.6838 11.5558 20.8191C11.6731 20.9544 11.8181 21.0628 11.9811 21.1372C12.144 21.2115 12.321 21.25 12.5 21.25L27.5 21.25C27.6791 21.25 27.8561 21.2115 28.019 21.1372C28.1819 21.0628 28.327 20.9544 28.4443 20.8191C28.5616 20.6838 28.6486 20.5249 28.6991 20.3531C28.7497 20.1814 28.7628 20.0007 28.7375 19.8234L26.5938 4.82344C26.5513 4.52552 26.4027 4.25293 26.1754 4.05574C25.9481 3.85855 25.6572 3.74999 25.3563 3.75L14.6438 3.75C14.3428 3.74999 14.052 3.85855 13.8247 4.05574Z" fill-rule="nonzero" stroke="rgb(255,255,255)" stroke-linecap="round" stroke-linejoin="round" stroke-width="2" />
</svg>
