<svg viewBox="0 0 40 40" xmlns="http://www.w3.org/2000/svg" xmlns:xlink="http://www.w3.org/1999/xlink" width="40.000000" height="40.000000" fill="none">
	<rect id="Icon" width="40.000000" height="40.000000" x="0.000000" y="0.000000" />
	<path id="Vector" />
	<path id="Vector" d="M10.5 12.875C10.3448 12.7586 10.2188 12.6076 10.132 12.434C10.0452 12.2604 10 12.0691 10 11.875L10 6.25C10 5.91848 10.1317 5.60054 10.3661 5.36612C10.6005 5.1317 10.9185 5 11.25 5L28.75 5C29.0815 5 29.3995 5.1317 29.6339 5.36612C29.8683 5.60054 30 5.91848 30 6.25L30 11.8188C29.9994 12.0115 29.9542 12.2015 29.868 12.3739C29.7818 12.5463 29.657 12.6964 29.5031 12.8125L20 20L10.5 12.875Z" fill-rule="nonzero" stroke="rgb(255,255,255)" stroke-linecap="round" stroke-linejoin="round" stroke-width="2" />
	<path id="Vector" d="M10.5 27.125C10.3448 27.2414 10.2188 27.3924 10.132 27.566C10.0452 27.7396 10 27.9309 10 28.125L10 33.75C10 34.0815 10.1317 34.3995 10.3661 34.6339C10.6005 34.8683 10.9185 35 11.25 35L28.75 35C29.0815 35 29.3995 34.8683 29.6339 34.6339C29.8683 34.3995 30 34.0815 30 33.75L30 28.1812C29.9999 27.988 29.9549 27.7974 29.8687 27.6244C29.7825 27.4514 29.6574 27.3008 29.5031 27.1844L20 20L10.5 27.125Z" fill-rule="nonzero" stroke="rgb(255,255,255)" stroke-linecap="round" stroke-linejoin="round" stroke-width="2" />
</svg>
