<svg viewBox="0 0 40 40" xmlns="http://www.w3.org/2000/svg" xmlns:xlink="http://www.w3.org/1999/xlink" width="40.000000" height="40.000000" fill="none">
	<rect id="Icon" width="40.000000" height="40.000000" x="0.000000" y="0.000000" fill="rgb(255,255,255)" fill-opacity="0" />
	<path id="Vector" />
	<path id="Vector" d="M20 30C21.0355 30 21.875 29.1605 21.875 28.125C21.875 27.0895 21.0355 26.25 20 26.25C18.9645 26.25 18.125 27.0895 18.125 28.125C18.125 29.1605 18.9645 30 20 30Z" fill="rgb(0,0,0)" fill-rule="nonzero" />
	<path id="Vector" d="M20 22.5L20 21.25C22.7609 21.25 25 19.2906 25 16.875C25 14.4594 22.7609 12.5 20 12.5C17.2391 12.5 15 14.4594 15 16.875L15 17.5" fill-rule="nonzero" stroke="rgb(0,0,0)" stroke-linecap="round" stroke-linejoin="round" stroke-width="2" />
	<path id="Vector" d="M20 35C11.7157 35 5 28.2843 5 20C5 11.7157 11.7157 5 20 5C28.2843 5 35 11.7157 35 20C35 28.2843 28.2843 35 20 35Z" stroke="rgb(0,0,0)" stroke-linecap="round" stroke-linejoin="round" stroke-width="2" />
</svg>
