<svg viewBox="0 0 40 40" xmlns="http://www.w3.org/2000/svg" xmlns:xlink="http://www.w3.org/1999/xlink" width="40.000000" height="40.000000" fill="none">
	<rect id="Icon" width="40.000000" height="40.000000" x="0.000000" y="0.000000" fill="rgb(255,255,255)" fill-opacity="0" />
	<path id="Vector" />
	<path id="Vector" d="M13.75 14.9859C13.75 8.95781 18.6063 3.94843 24.6313 3.75625C26.1704 3.70494 27.7036 3.97017 29.1361 4.53552C30.5685 5.10086 31.8696 5.95428 32.9589 7.04291C34.0481 8.13154 34.9022 9.4322 35.4683 10.8643C36.0344 12.2965 36.3005 13.8296 36.25 15.3687C36.0516 21.3937 31.0422 26.25 25.0141 26.25C23.5731 26.2538 22.1449 25.9795 20.8078 25.4422L18.75 27.5L15 27.5L15 31.25L11.25 31.25L11.25 35L6.25 35C5.91848 35 5.60054 34.8683 5.36612 34.6339C5.1317 34.3995 5 34.0815 5 33.75L5 29.2672C5.00015 28.9361 5.13165 28.6186 5.36562 28.3844L14.5578 19.1922C14.0205 17.8551 13.7462 16.4269 13.75 14.9859Z" fill-rule="nonzero" stroke="rgb(255,255,255)" stroke-linecap="round" stroke-linejoin="round" stroke-width="2" />
	<path id="Vector" d="M28.125 13.75C29.1605 13.75 30 12.9105 30 11.875C30 10.8395 29.1605 10 28.125 10C27.0895 10 26.25 10.8395 26.25 11.875C26.25 12.9105 27.0895 13.75 28.125 13.75Z" fill="rgb(255,255,255)" fill-rule="nonzero" />
	<path id="Vector" d="M30 11.875C30 12.9105 29.1605 13.75 28.125 13.75C27.0895 13.75 26.25 12.9105 26.25 11.875C26.25 10.8395 27.0895 10 28.125 10C29.1605 10 30 10.8395 30 11.875ZM28.5124 13.5823Q28.3235 13.625 28.125 13.625Q27.9265 13.625 27.7376 13.5823Q27.5877 13.5484 27.4439 13.4875Q27.2972 13.4255 27.1662 13.3396Q27.0167 13.2416 26.8876 13.1124Q26.7584 12.9833 26.6604 12.8337Q26.5745 12.7028 26.5125 12.5561Q26.4516 12.4123 26.4177 12.2624Q26.375 12.0735 26.375 11.875Q26.375 11.6765 26.4177 11.4876Q26.4516 11.3377 26.5125 11.1939Q26.5745 11.0472 26.6604 10.9162Q26.7584 10.7667 26.8876 10.6376Q27.0167 10.5084 27.1662 10.4104Q27.2972 10.3245 27.4439 10.2625Q27.5877 10.2016 27.7376 10.1677Q27.9265 10.125 28.125 10.125Q28.3235 10.125 28.5124 10.1677Q28.6623 10.2016 28.8061 10.2625Q28.9528 10.3245 29.0837 10.4104Q29.2333 10.5084 29.3624 10.6376Q29.4916 10.7667 29.5896 10.9162Q29.6755 11.0472 29.7375 11.1939Q29.7984 11.3377 29.8323 11.4876Q29.875 11.6765 29.875 11.875Q29.875 12.0735 29.8323 12.2624Q29.7984 12.4123 29.7375 12.5561Q29.6755 12.7028 29.5896 12.8337Q29.4916 12.9833 29.3624 13.1124Q29.2333 13.2416 29.0837 13.3396Q28.9528 13.4255 28.8061 13.4875Q28.6623 13.5484 28.5124 13.5823Z" fill="rgb(255,255,255)" fill-rule="evenodd" />
</svg>
