<svg viewBox="0 0 40 40" xmlns="http://www.w3.org/2000/svg" xmlns:xlink="http://www.w3.org/1999/xlink" width="40.000000" height="40.000000" fill="none">
	<rect id="Icon" width="40.000000" height="40.000000" x="0.000000" y="0.000000" />
	<path id="Vector" />
	<path id="Vector" d="M0 0L27.5 0" stroke="rgb(255,255,255)" stroke-linecap="round" stroke-linejoin="round" stroke-width="2" transform="matrix(0,1,-1,0,20,6.25)" />
	<path id="Vector" d="M16.25 33.75L23.75 33.75" stroke="rgb(255,255,255)" stroke-linecap="round" stroke-linejoin="round" stroke-width="2" />
	<path id="Vector" d="M8.75 13.75L31.25 8.75" stroke="rgb(255,255,255)" stroke-linecap="round" stroke-linejoin="round" stroke-width="2" />
	<path id="Vector" d="M8.75 30C10.625 30 13.75 29.0109 13.75 26.25L8.75 13.75L3.75 26.25C3.75 29.0109 6.875 30 8.75 30Z" fill-rule="nonzero" stroke="rgb(255,255,255)" stroke-linecap="round" stroke-linejoin="round" stroke-width="2" />
	<path id="Vector" d="M31.25 25C33.125 25 36.25 24.0109 36.25 21.25L31.25 8.75L26.25 21.25C26.25 24.0109 29.375 25 31.25 25Z" fill-rule="nonzero" stroke="rgb(255,255,255)" stroke-linecap="round" stroke-linejoin="round" stroke-width="2" />
</svg>
