<svg viewBox="0 0 40 40" xmlns="http://www.w3.org/2000/svg" xmlns:xlink="http://www.w3.org/1999/xlink" width="40.000000" height="40.000000" fill="none">
	<rect id="Icon" width="40.000000" height="40.000000" x="0.000000" y="0.000000" />
	<path id="Vector" />
	<path id="Vector" d="M8.75 35C8.41848 35 8.10054 34.8683 7.86612 34.6339C7.6317 34.3995 7.5 34.0815 7.5 33.75L7.5 6.25C7.5 5.91848 7.6317 5.60054 7.86612 5.36612C8.10054 5.1317 8.41848 5 8.75 5L23.75 5L32.5 13.75L32.5 33.75C32.5 34.0815 32.3683 34.3995 32.1339 34.6339C31.8995 34.8683 31.5815 35 31.25 35L8.75 35Z" fill-rule="nonzero" stroke="rgb(255,255,255)" stroke-linecap="round" stroke-linejoin="round" stroke-width="2" />
	<path id="Vector" d="M23.75 5L23.75 13.75L32.5 13.75" fill-rule="nonzero" stroke="rgb(255,255,255)" stroke-linecap="round" stroke-linejoin="round" stroke-width="2" />
	<path id="Vector" d="M15 21.25L25 21.25" stroke="rgb(255,255,255)" stroke-linecap="round" stroke-linejoin="round" stroke-width="2" />
	<path id="Vector" d="M15 26.25L25 26.25" stroke="rgb(255,255,255)" stroke-linecap="round" stroke-linejoin="round" stroke-width="2" />
</svg>
