<svg viewBox="0 0 40 40" xmlns="http://www.w3.org/2000/svg" xmlns:xlink="http://www.w3.org/1999/xlink" width="40.000000" height="40.000000" fill="none">
	<rect id="Icon" width="40.000000" height="40.000000" x="0.000000" y="0.000000" fill="rgb(255,255,255)" fill-opacity="0" />
	<path id="Vector" />
	<path id="Vector" d="M16.875 26.25C11.6973 26.25 7.5 22.0527 7.5 16.875C7.5 11.6973 11.6973 7.5 16.875 7.5C22.0527 7.5 26.25 11.6973 26.25 16.875C26.25 22.0527 22.0527 26.25 16.875 26.25Z" stroke="rgb(255,255,255)" stroke-linecap="round" stroke-linejoin="round" stroke-width="2" />
	<path id="Vector" d="M3.75 32.5C6.96094 28.6797 11.4937 26.25 16.875 26.25C22.2563 26.25 26.7891 28.6797 30 32.5" fill-rule="nonzero" stroke="rgb(255,255,255)" stroke-linecap="round" stroke-linejoin="round" stroke-width="2" />
	<path id="Vector" d="M31.25 10.7402C32.0749 12.6802 32.5001 14.7666 32.5001 16.8746C32.5001 18.9827 32.0749 21.069 31.25 23.009" fill-rule="nonzero" stroke="rgb(255,255,255)" stroke-linecap="round" stroke-linejoin="round" stroke-width="2" />
	<path id="Vector" d="M35.8379 8.75C36.9348 11.3183 37.5004 14.0822 37.5004 16.875C37.5004 19.6678 36.9348 22.4317 35.8379 25" fill-rule="nonzero" stroke="rgb(255,255,255)" stroke-linecap="round" stroke-linejoin="round" stroke-width="2" />
</svg>
