<svg viewBox="0 0 20 20" xmlns="http://www.w3.org/2000/svg" xmlns:xlink="http://www.w3.org/1999/xlink" width="20.000000" height="20.000000" fill="none">
	<rect id="Icon" width="20.000000" height="20.000000" x="0.000000" y="0.000000" />
	<path id="Vector" />
	<path id="Vector" d="M10 15C10.5178 15 10.9375 14.5803 10.9375 14.0625C10.9375 13.5447 10.5178 13.125 10 13.125C9.48223 13.125 9.0625 13.5447 9.0625 14.0625C9.0625 14.5803 9.48223 15 10 15Z" fill="rgb(127.5,127.5,127.5)" fill-rule="nonzero" />
	<path id="Vector" d="M10 11.25L10 10.625C11.3805 10.625 12.5 9.64531 12.5 8.4375C12.5 7.22969 11.3805 6.25 10 6.25C8.61953 6.25 7.5 7.22969 7.5 8.4375L7.5 8.75" fill-rule="nonzero" stroke="rgb(127.5,127.5,127.5)" stroke-linecap="round" stroke-linejoin="round" stroke-width="1.20000005" />
	<path id="Vector" d="M10 17.5C5.85786 17.5 2.5 14.1421 2.5 10C2.5 5.85786 5.85786 2.5 10 2.5C14.1421 2.5 17.5 5.85786 17.5 10C17.5 14.1421 14.1421 17.5 10 17.5Z" stroke="rgb(127.5,127.5,127.5)" stroke-linecap="round" stroke-linejoin="round" stroke-width="1.20000005" />
</svg>
