<svg width="98" height="33" viewBox="0 0 98 33" fill="none" xmlns="http://www.w3.org/2000/svg">
<path fill-rule="evenodd" clip-rule="evenodd" d="M17.3653 0.183594C26.4101 0.184004 33.8954 7.56702 33.8958 16.4383C33.8958 25.4339 26.4727 32.818 17.3653 32.8184C8.31995 32.8184 0.895752 25.4342 0.895752 16.4383C0.896071 7.50474 8.32014 0.183594 17.3653 0.183594ZM17.3653 7.19466C12.375 7.19466 8.25625 11.3513 8.25594 16.4383C8.25594 21.5877 12.3124 25.8073 17.3653 25.8073C22.3555 25.8069 26.5355 21.588 26.5356 16.501C26.5356 11.4139 22.3555 7.19509 17.3653 7.19466Z" fill="white"/>
<path fill-rule="evenodd" clip-rule="evenodd" d="M81.8076 0.183594C85.4146 0.183594 88.2762 1.42468 90.3907 3.78223L90.4039 0.916972H97.604V32.0836H90.3907V29.1571C88.3384 31.5766 85.4146 32.8184 81.8076 32.8184C73.1012 32.8182 65.8877 25.4347 65.8877 16.501C65.8877 7.56722 73.1012 0.183733 81.8076 0.183594ZM82.368 7.19466C77.3307 7.19466 73.2264 11.3516 73.2264 16.501C73.2265 21.5883 77.3307 25.8073 82.368 25.8073C85.6639 25.8071 88.6485 23.9452 90.2653 21.0915V11.9105C88.6485 9.05674 85.6639 7.19482 82.368 7.19466Z" fill="white"/>
<path d="M45.3254 15.5843L57.2743 0.917643H66.4374L53.9943 16.501L66.4374 32.0843H57.2743L45.3254 17.4176V32.0843H38.0207V0.917643H45.3254V15.5843Z" fill="white"/>
</svg>
