<svg viewBox="0 0 40 40" xmlns="http://www.w3.org/2000/svg" xmlns:xlink="http://www.w3.org/1999/xlink" width="40.000000" height="40.000000" fill="none">
	<rect id="Icon" width="40.000000" height="40.000000" x="0.000000" y="0.000000" fill="rgb(255,255,255)" fill-opacity="0" />
	<path id="Vector" />
	<path id="Vector" d="M7.5 32.5L2.5 32.5C2.16848 32.5 1.85054 32.3683 1.61612 32.1339C1.3817 31.8995 1.25 31.5815 1.25 31.25L1.25 25C1.25 24.6685 1.3817 24.3505 1.61612 24.1161C1.85054 23.8817 2.16848 23.75 2.5 23.75L7.5 23.75" fill-rule="nonzero" stroke="rgb(255,255,255)" stroke-linecap="round" stroke-linejoin="round" stroke-width="2" />
	<path id="Vector" d="M22.5 25L32.9688 22.5922C33.3536 22.4867 33.7577 22.4714 34.1494 22.5475C34.5412 22.6236 34.9101 22.789 35.2276 23.0308C35.545 23.2727 35.8024 23.5845 35.9797 23.942C36.157 24.2995 36.2495 24.6931 36.25 25.0922C36.2502 25.5741 36.1161 26.0464 35.8627 26.4563C35.6093 26.8662 35.2467 27.1973 34.8156 27.4125L28.75 30L18.75 32.5L7.5 32.5L7.5 23.75L11.4062 19.8438C11.7554 19.4958 12.1697 19.2201 12.6255 19.0325C13.0813 18.8448 13.5696 18.7488 14.0625 18.75L21.875 18.75C22.7038 18.75 23.4987 19.0793 24.0847 19.6653C24.6708 20.2514 25 21.0462 25 21.875C25 22.7038 24.6708 23.4987 24.0847 24.0847C23.4987 24.6708 22.7038 25 21.875 25L17.5 25L22.5 25Z" fill-rule="nonzero" stroke="rgb(255,255,255)" stroke-linecap="round" stroke-linejoin="round" stroke-width="2" />
	<path id="Vector" d="M15.1141 18.7504C13.5938 16.8317 12.5 14.7754 12.5 12.5004C12.5 9.11136 15.2609 6.25042 18.6656 6.25042C19.8825 6.23614 21.0759 6.58541 22.093 7.25348C23.1102 7.92156 23.9047 8.87803 24.375 10.0004C24.8453 8.87803 25.6398 7.92156 26.657 7.25348C27.6741 6.58541 28.8675 6.23614 30.0844 6.25042C33.4891 6.25042 36.25 9.11136 36.25 12.5004C36.25 17.0676 31.8469 21.1051 28.4031 23.6442" fill-rule="nonzero" stroke="rgb(255,255,255)" stroke-linecap="round" stroke-linejoin="round" stroke-width="2" />
</svg>
