<svg viewBox="0 0 40 40" xmlns="http://www.w3.org/2000/svg" xmlns:xlink="http://www.w3.org/1999/xlink" width="40.000000" height="40.000000" fill="none">
	<rect id="Icon" width="40.000000" height="40.000000" x="0.000000" y="0.000000" fill="rgb(255,255,255)" fill-opacity="0" />
	<path id="Vector" />
	<path id="Vector" d="M13.75 36.25L26.25 36.25" stroke="rgb(255,255,255)" stroke-linecap="round" stroke-linejoin="round" stroke-width="2" />
	<path id="Vector" d="M8.77667 21.7575C7.94585 20.0647 7.50943 18.2057 7.50019 16.3201C7.46269 9.54507 12.9252 3.90601 19.6986 3.74976C22.3236 3.68618 24.902 4.45085 27.0679 5.93529C29.2339 7.41973 30.8773 9.54854 31.7651 12.0197C32.6529 14.4908 32.74 17.1788 32.014 19.7022C31.288 22.2256 29.7858 24.4564 27.7205 26.0779C27.265 26.4311 26.8958 26.8834 26.6411 27.4005C26.3863 27.9175 26.2527 28.4858 26.2502 29.0623L26.2502 29.9998C26.2502 30.3313 26.1185 30.6492 25.8841 30.8836C25.6497 31.1181 25.3317 31.2498 25.0002 31.2498L15.0002 31.2498C14.6687 31.2498 14.3507 31.1181 14.1163 30.8836C13.8819 30.6492 13.7502 30.3313 13.7502 29.9998L13.7502 29.0623C13.7496 28.4895 13.6184 27.9244 13.3666 27.41C13.1148 26.8956 12.749 26.4453 12.2971 26.0935C10.8111 24.9327 9.60748 23.4502 8.77667 21.7575Z" fill-rule="nonzero" stroke="rgb(255,255,255)" stroke-linecap="round" stroke-linejoin="round" stroke-width="2" />
	<path id="Vector" d="M21.25 8.75C24.375 9.27656 26.9703 11.875 27.5 15" fill-rule="nonzero" stroke="rgb(255,255,255)" stroke-linecap="round" stroke-linejoin="round" stroke-width="2" />
</svg>
