<svg viewBox="0 0 40 40" xmlns="http://www.w3.org/2000/svg" xmlns:xlink="http://www.w3.org/1999/xlink" width="40.000000" height="40.000000" fill="none">
	<rect id="Icon" width="40.000000" height="40.000000" x="0.000000" y="0.000000" fill="rgb(255,255,255)" fill-opacity="0" />
	<path id="Vector" />
	<path id="Vector" d="M15 18.75C8.09644 18.75 2.5 16.2316 2.5 13.125C2.5 10.0184 8.09644 7.5 15 7.5C21.9036 7.5 27.5 10.0184 27.5 13.125C27.5 16.2316 21.9036 18.75 15 18.75Z" stroke="rgb(255,255,255)" stroke-linecap="round" stroke-linejoin="round" stroke-width="2" />
	<path id="Vector" d="M2.5 13.125L2.5 19.375C2.5 22.4813 8.09688 25 15 25C21.9031 25 27.5 22.4813 27.5 19.375L27.5 13.125" fill-rule="nonzero" stroke="rgb(255,255,255)" stroke-linecap="round" stroke-linejoin="round" stroke-width="2" />
	<path id="Vector" d="M0 0L6.25 0" stroke="rgb(255,255,255)" stroke-linecap="round" stroke-linejoin="round" stroke-width="2" transform="matrix(0,1,-1,0,10,18.2812)" />
	<path id="Vector" d="M27.4992 15.1133C33.2055 15.6352 37.4992 17.9039 37.4992 20.6258C37.4992 23.732 31.9023 26.2508 24.9992 26.2508C21.9367 26.2508 19.1305 25.7555 16.957 24.932" fill-rule="nonzero" stroke="rgb(255,255,255)" stroke-linecap="round" stroke-linejoin="round" stroke-width="2" />
	<path id="Vector" d="M12.5 24.8875L12.5 26.875C12.5 29.9813 18.0969 32.5 25 32.5C31.9031 32.5 37.5 29.9813 37.5 26.875L37.5 20.625" fill-rule="nonzero" stroke="rgb(255,255,255)" stroke-linecap="round" stroke-linejoin="round" stroke-width="2" />
	<path id="Vector" d="M0 0L6.25 0" stroke="rgb(255,255,255)" stroke-linecap="round" stroke-linejoin="round" stroke-width="2" transform="matrix(0,1,-1,0,30,25.7812)" />
	<path id="Vector" d="M0 0L13.75 0" stroke="rgb(255,255,255)" stroke-linecap="round" stroke-linejoin="round" stroke-width="2" transform="matrix(0,1,-1,0,20,18.2812)" />
</svg>
